<svg xmlns="http://www.w3.org/2000/svg" viewBox="0 0 33.86 23.59"><defs><style>.cls-1{fill:#fff;}</style></defs><g id="圖層_2" data-name="圖層 2"><g id="圖層_1-2" data-name="圖層 1"><path class="cls-1" d="M18.26,5.42c-.08.37-.13.74-.23,1.09a5.89,5.89,0,0,1-1.64,2.6c-1.31,1.3-2.7,2.51-4.1,3.7-.82.7-1.66,1.39-2.5,2.08a.88.88,0,0,1-1.3,0C6.57,13.32,4.67,11.72,2.85,10A12,12,0,0,1,1,8.09,5,5,0,0,1,.76,2.45a5.06,5.06,0,0,1,7.9-1L9.13,2l.44-.43a5.07,5.07,0,0,1,8.64,2.83,2,2,0,0,0,.05.24ZM9.14,13.34l.13-.1c1.28-1.09,2.58-2.17,3.84-3.28C14,9.2,14.8,8.42,15.59,7.6a3.51,3.51,0,0,0,.94-3.43,3.45,3.45,0,0,0-5.7-1.62c-.36.34-.7.7-1.05,1a.85.85,0,0,1-1.28,0c-.32-.32-.64-.66-1-1A3.39,3.39,0,0,0,4,1.78a3.42,3.42,0,0,0-2,4.94A5.62,5.62,0,0,0,3.36,8.29C4.89,9.67,6.44,11,8,12.38,8.36,12.71,8.75,13,9.14,13.34Z"/><path class="cls-1" d="M33.86,8.29c-.06.25-.09.51-.16.77a4.24,4.24,0,0,1-1.17,1.83c-.92.92-1.9,1.77-2.89,2.61-.58.5-1.18,1-1.77,1.48A.61.61,0,0,1,27,15c-1.35-1.11-2.7-2.24-4-3.44a8.83,8.83,0,0,1-1.29-1.37,3.51,3.51,0,0,1-.18-4,3.58,3.58,0,0,1,5.58-.69l.34.35.3-.31a3.84,3.84,0,0,1,1.35-.86,3.59,3.59,0,0,1,4.77,2.87,1.22,1.22,0,0,0,0,.17Z"/><path class="cls-1" d="M27.4,23.59H8.7a1,1,0,0,1-1-1V19a1,1,0,0,1,1.94,0v2.68H26.44V19a1,1,0,1,1,1.93,0v3.65A1,1,0,0,1,27.4,23.59Z"/></g></g></svg>