<svg xmlns="http://www.w3.org/2000/svg" viewBox="0 0 42.01 42.01"><defs><style>.cls-1{fill:#4f4f4f;}.cls-2{fill:#fff;}</style></defs><g id="圖層_2" data-name="圖層 2"><g id="圖層_1-2" data-name="圖層 1"><rect class="cls-1" width="42.01" height="42.01"/><path class="cls-2" d="M22,15.28c-.08.36-.13.74-.23,1.09A5.89,5.89,0,0,1,20.14,19c-1.31,1.3-2.69,2.51-4.09,3.7l-2.5,2.08a.89.89,0,0,1-1.31,0c-1.91-1.58-3.82-3.18-5.64-4.87A12,12,0,0,1,4.77,18a5,5,0,0,1-.26-5.64,5.06,5.06,0,0,1,7.9-1c.16.15.3.31.47.49l.44-.43A5.08,5.08,0,0,1,22,14.22a2,2,0,0,0,0,.24ZM12.89,23.2l.14-.1c1.28-1.09,2.57-2.17,3.84-3.29.85-.75,1.68-1.53,2.47-2.35A3.51,3.51,0,0,0,20.28,14a3.45,3.45,0,0,0-5.7-1.62c-.36.34-.7.69-1.05,1a.84.84,0,0,1-1.27,0c-.33-.33-.65-.66-1-1a3.38,3.38,0,0,0-3.48-.83,3.42,3.42,0,0,0-2,4.94,5.48,5.48,0,0,0,1.3,1.57c1.53,1.38,3.07,2.73,4.62,4.09C12.11,22.57,12.5,22.88,12.89,23.2Z"/><path class="cls-2" d="M37.61,18.14c0,.26-.09.52-.16.78a4.22,4.22,0,0,1-1.16,1.83c-.93.92-1.91,1.77-2.9,2.61-.58.5-1.17,1-1.76,1.48a.62.62,0,0,1-.92,0c-1.36-1.12-2.71-2.24-4-3.44A8,8,0,0,1,25.43,20a3.5,3.5,0,0,1-.19-4,3.58,3.58,0,0,1,5.58-.69l.34.35.31-.31a3.72,3.72,0,0,1,1.34-.86,3.59,3.59,0,0,1,4.77,2.86l0,.18Z"/><path class="cls-2" d="M31.16,33.45H12.45a1,1,0,0,1-1-1V28.83a1,1,0,0,1,1.94,0v2.68H30.19V28.83a1,1,0,1,1,1.93,0v3.65A1,1,0,0,1,31.16,33.45Z"/></g></g></svg>