<svg xmlns="http://www.w3.org/2000/svg" viewBox="0 0 57.21 32.17"><defs><style>.cls-1{fill:#fff;stroke:#fff;stroke-miterlimit:10;}</style></defs><g id="圖層_2" data-name="圖層 2"><g id="圖層_1-2" data-name="圖層 1"><path class="cls-1" d="M32.4,9c-.43,1.84-.9,3.71-1.43,5.59s-1,3.75-1.55,5.6c-.21.77-.4,1.47-.56,2.1s-.3,1.2-.41,1.72-.19,1-.25,1.39a10,10,0,0,0-.08,1.16v.23c0,.08,0,.19,0,.31a3.08,3.08,0,0,0,.75-.19q.57-.18,1.35-.48c.52-.2,1.07-.43,1.64-.68s1.11-.5,1.6-.76l1-.5c.27-.13.49-.24.68-.31a3.24,3.24,0,0,1,.52-.15,2.59,2.59,0,0,1,.48,0,1.18,1.18,0,0,1,.9.4,1.46,1.46,0,0,1,.38,1,2.43,2.43,0,0,1-.08.64,1.58,1.58,0,0,1-.23.49,1.88,1.88,0,0,1-.43.41,6.87,6.87,0,0,1-.65.4,37.11,37.11,0,0,1-8.56,3.23,37.25,37.25,0,0,1-8.69,1l-.84,0-1-.06c-.34,0-.67-.06-1-.11a6.94,6.94,0,0,1-.85-.18,1.36,1.36,0,0,1-.67-.48,1.27,1.27,0,0,1-.28-.79,3.49,3.49,0,0,1,.06-.65,1.34,1.34,0,0,1,.2-.55,1.12,1.12,0,0,1,.4-.38,1.2,1.2,0,0,1,.59-.14l1.38.17a13.61,13.61,0,0,0,1.56.1c1.05,0,2.1,0,3.14-.08a19.2,19.2,0,0,0,3.2-.44c.05,0,.09-.08.11-.18s0-.21,0-.36q0-.9.15-1.59c.07-.45.16-.91.27-1.37s.26-.95.43-1.48.36-1.16.59-1.9.48-1.63.77-2.66.62-2.27,1-3.73l.8-3.25c.19-.74.34-1.42.45-2s.19-1.19.27-1.77A1,1,0,0,1,30,7.23a2.09,2.09,0,0,1,1-.25,1.09,1.09,0,0,1,.63.19,1.57,1.57,0,0,1,.47.49,1.88,1.88,0,0,1,.25.66A1.6,1.6,0,0,1,32.4,9Z"/><path class="cls-1" d="M1.32,23.8a3.71,3.71,0,0,1,1.56-.69c.53-.1,1.09-.17,1.68-.23L8.74,6H8.36l-.68,0a4.62,4.62,0,0,1-.74-.15,1.23,1.23,0,0,1-.56-.28l-.2-.31a4.23,4.23,0,0,1-.25-.42,3.76,3.76,0,0,1-.2-.46,1.5,1.5,0,0,1-.08-.47A.8.8,0,0,1,6,3.18a2.81,2.81,0,0,1,.81-.42,5.25,5.25,0,0,1,1-.22,7.57,7.57,0,0,1,1-.07c1.4,0,2.7,0,3.9.13a17.35,17.35,0,0,1,3.36.54A12.59,12.59,0,0,1,19,4.33a11.49,11.49,0,0,1,2.64,2.05,9,9,0,0,1,.89,1.09,8.47,8.47,0,0,1,1.28,2.83A7.28,7.28,0,0,1,24,12c0,.33,0,.67-.05,1a8.12,8.12,0,0,1-.13.92,13,13,0,0,1-1.37,3.44,12.86,12.86,0,0,1-2,2.66,13.77,13.77,0,0,1-2.55,2A22.3,22.3,0,0,1,15,23.55a29.61,29.61,0,0,1-3,1.1c-1,.31-2,.59-3,.84H9c-.44.13-.9.25-1.41.35s-1,.18-1.52.25-1,.12-1.53.16-1,.06-1.43.06a6.1,6.1,0,0,1-1.23-.1A2.68,2.68,0,0,1,1.08,26a1.05,1.05,0,0,1-.45-.36.73.73,0,0,1-.13-.43,1.44,1.44,0,0,1,.19-.69A2.1,2.1,0,0,1,1.32,23.8ZM8.67,19c-.13.57-.27,1.16-.41,1.76S8,22,7.84,22.53l.38-.08c.25-.06.58-.14,1-.26l1.44-.41c.55-.17,1.12-.37,1.72-.61s1.24-.51,1.92-.84a21,21,0,0,0,2-1.12,22.55,22.55,0,0,0,1.89-1.36,10.72,10.72,0,0,0,1.58-1.58,7.53,7.53,0,0,0,1.1-1.77,4.8,4.8,0,0,0,0-3.86A6.74,6.74,0,0,0,19.8,9a8.4,8.4,0,0,0-1.57-1.39,11.84,11.84,0,0,0-1.87-1,11.07,11.07,0,0,0-2-.67,8.5,8.5,0,0,0-1.88-.22,61.74,61.74,0,0,0-2.14,6.59C9.79,14.44,9.22,16.71,8.67,19Z"/><path class="cls-1" d="M36.21,19.76a3.54,3.54,0,0,1,1.41-.63c.48-.08,1-.15,1.52-.2L42.91,3.65h-.34c-.19,0-.39,0-.62,0a4,4,0,0,1-.67-.13,1.12,1.12,0,0,1-.5-.25l-.19-.28c-.07-.12-.14-.24-.21-.38a2.5,2.5,0,0,1-.19-.41,1.33,1.33,0,0,1-.07-.43.73.73,0,0,1,.29-.58,2.64,2.64,0,0,1,.73-.38,4.91,4.91,0,0,1,.93-.2A7.54,7.54,0,0,1,43,.5c1.27,0,2.44,0,3.53.11a16.54,16.54,0,0,1,3,.49,11.88,11.88,0,0,1,2.66,1.08A10.31,10.31,0,0,1,54.56,4a9,9,0,0,1,.81,1,7.66,7.66,0,0,1,.68,1.19,7.37,7.37,0,0,1,.47,1.37,6,6,0,0,1,.19,1.55c0,.29,0,.6-.05.92a7.14,7.14,0,0,1-.12.83A11.54,11.54,0,0,1,55.31,14a11.93,11.93,0,0,1-1.84,2.4,12.53,12.53,0,0,1-2.3,1.82,20,20,0,0,1-2.6,1.34,28,28,0,0,1-2.73,1q-1.4.42-2.7.75h0a12.37,12.37,0,0,1-1.27.32c-.45.09-.91.17-1.37.23s-.92.1-1.38.14-.89.05-1.29.05a7,7,0,0,1-1.12-.08,2.73,2.73,0,0,1-.73-.23,1,1,0,0,1-.4-.32.69.69,0,0,1-.12-.39,1.39,1.39,0,0,1,.17-.63A1.91,1.91,0,0,1,36.21,19.76Zm6.64-4.33c-.12.51-.25,1-.38,1.58s-.25,1.08-.37,1.6l.34-.07.9-.23c.38-.1.81-.23,1.31-.38s1-.33,1.55-.54,1.12-.47,1.73-.76a20.06,20.06,0,0,0,1.8-1,19,19,0,0,0,1.71-1.23A10.17,10.17,0,0,0,52.87,13a7.3,7.3,0,0,0,1-1.6,4.22,4.22,0,0,0,.37-1.74,4.32,4.32,0,0,0-.36-1.75,5.89,5.89,0,0,0-1-1.52A7.05,7.05,0,0,0,51.48,5.1a10.43,10.43,0,0,0-1.69-.95A9,9,0,0,0,48,3.56a7.52,7.52,0,0,0-1.7-.21,57.3,57.3,0,0,0-1.93,6C43.86,11.31,43.34,13.35,42.85,15.43Z"/><path class="cls-1" d="M32.4,9c-.43,1.84-.9,3.71-1.43,5.59s-1,3.75-1.55,5.6c-.21.77-.4,1.47-.56,2.1s-.3,1.2-.41,1.72-.19,1-.25,1.39a10,10,0,0,0-.08,1.16v.23c0,.08,0,.19,0,.31a3.08,3.08,0,0,0,.75-.19q.57-.18,1.35-.48c.52-.2,1.07-.43,1.64-.68s1.11-.5,1.6-.76l1-.5c.27-.13.49-.24.68-.31a3.24,3.24,0,0,1,.52-.15,2.59,2.59,0,0,1,.48,0,1.18,1.18,0,0,1,.9.4,1.46,1.46,0,0,1,.38,1,2.43,2.43,0,0,1-.08.64,1.58,1.58,0,0,1-.23.49,1.88,1.88,0,0,1-.43.41,6.87,6.87,0,0,1-.65.4,37.11,37.11,0,0,1-8.56,3.23,37.25,37.25,0,0,1-8.69,1l-.84,0-1-.06c-.34,0-.67-.06-1-.11a6.94,6.94,0,0,1-.85-.18,1.36,1.36,0,0,1-.67-.48,1.27,1.27,0,0,1-.28-.79,3.49,3.49,0,0,1,.06-.65,1.34,1.34,0,0,1,.2-.55,1.12,1.12,0,0,1,.4-.38,1.2,1.2,0,0,1,.59-.14l1.38.17a13.61,13.61,0,0,0,1.56.1c1.05,0,2.1,0,3.14-.08a19.2,19.2,0,0,0,3.2-.44c.05,0,.09-.08.11-.18s0-.21,0-.36q0-.9.15-1.59c.07-.45.16-.91.27-1.37s.26-.95.43-1.48.36-1.16.59-1.9.48-1.63.77-2.66.62-2.27,1-3.73l.8-3.25c.19-.74.34-1.42.45-2s.19-1.19.27-1.77A1,1,0,0,1,30,7.23a2.09,2.09,0,0,1,1-.25,1.09,1.09,0,0,1,.63.19,1.57,1.57,0,0,1,.47.49,1.88,1.88,0,0,1,.25.66A1.6,1.6,0,0,1,32.4,9Z"/><path class="cls-1" d="M1.32,23.8a3.71,3.71,0,0,1,1.56-.69c.53-.1,1.09-.17,1.68-.23L8.74,6H8.36l-.68,0a4.62,4.62,0,0,1-.74-.15,1.23,1.23,0,0,1-.56-.28l-.2-.31a4.23,4.23,0,0,1-.25-.42,3.76,3.76,0,0,1-.2-.46,1.5,1.5,0,0,1-.08-.47A.8.8,0,0,1,6,3.18a2.81,2.81,0,0,1,.81-.42,5.25,5.25,0,0,1,1-.22,7.57,7.57,0,0,1,1-.07c1.4,0,2.7,0,3.9.13a17.35,17.35,0,0,1,3.36.54A12.59,12.59,0,0,1,19,4.33a11.49,11.49,0,0,1,2.64,2.05,9,9,0,0,1,.89,1.09,8.47,8.47,0,0,1,1.28,2.83A7.28,7.28,0,0,1,24,12c0,.33,0,.67-.05,1a8.12,8.12,0,0,1-.13.92,13,13,0,0,1-1.37,3.44,12.86,12.86,0,0,1-2,2.66,13.77,13.77,0,0,1-2.55,2A22.3,22.3,0,0,1,15,23.55a29.61,29.61,0,0,1-3,1.1c-1,.31-2,.59-3,.84H9c-.44.13-.9.25-1.41.35s-1,.18-1.52.25-1,.12-1.53.16-1,.06-1.43.06a6.1,6.1,0,0,1-1.23-.1A2.68,2.68,0,0,1,1.08,26a1.05,1.05,0,0,1-.45-.36.73.73,0,0,1-.13-.43,1.44,1.44,0,0,1,.19-.69A2.1,2.1,0,0,1,1.32,23.8ZM8.67,19c-.13.57-.27,1.16-.41,1.76S8,22,7.84,22.53l.38-.08c.25-.06.58-.14,1-.26l1.44-.41c.55-.17,1.12-.37,1.72-.61s1.24-.51,1.92-.84a21,21,0,0,0,2-1.12,22.55,22.55,0,0,0,1.89-1.36,10.72,10.72,0,0,0,1.58-1.58,7.53,7.53,0,0,0,1.1-1.77,4.8,4.8,0,0,0,0-3.86A6.74,6.74,0,0,0,19.8,9a8.4,8.4,0,0,0-1.57-1.39,11.84,11.84,0,0,0-1.87-1,11.07,11.07,0,0,0-2-.67,8.5,8.5,0,0,0-1.88-.22,61.74,61.74,0,0,0-2.14,6.59C9.79,14.44,9.22,16.71,8.67,19Z"/><path class="cls-1" d="M36.21,19.76a3.54,3.54,0,0,1,1.41-.63c.48-.08,1-.15,1.52-.2L42.91,3.65h-.34c-.19,0-.39,0-.62,0a4,4,0,0,1-.67-.13,1.12,1.12,0,0,1-.5-.25l-.19-.28c-.07-.12-.14-.24-.21-.38a2.5,2.5,0,0,1-.19-.41,1.33,1.33,0,0,1-.07-.43.73.73,0,0,1,.29-.58,2.64,2.64,0,0,1,.73-.38,4.91,4.91,0,0,1,.93-.2A7.54,7.54,0,0,1,43,.5c1.27,0,2.44,0,3.53.11a16.54,16.54,0,0,1,3,.49,11.88,11.88,0,0,1,2.66,1.08A10.31,10.31,0,0,1,54.56,4a9,9,0,0,1,.81,1,7.66,7.66,0,0,1,.68,1.19,7.37,7.37,0,0,1,.47,1.37,6,6,0,0,1,.19,1.55c0,.29,0,.6-.05.92a7.14,7.14,0,0,1-.12.83A11.54,11.54,0,0,1,55.31,14a11.93,11.93,0,0,1-1.84,2.4,12.53,12.53,0,0,1-2.3,1.82,20,20,0,0,1-2.6,1.34,28,28,0,0,1-2.73,1q-1.4.42-2.7.75h0a12.37,12.37,0,0,1-1.27.32c-.45.09-.91.17-1.37.23s-.92.1-1.38.14-.89.05-1.29.05a7,7,0,0,1-1.12-.08,2.73,2.73,0,0,1-.73-.23,1,1,0,0,1-.4-.32.69.69,0,0,1-.12-.39,1.39,1.39,0,0,1,.17-.63A1.91,1.91,0,0,1,36.21,19.76Zm6.64-4.33c-.12.51-.25,1-.38,1.58s-.25,1.08-.37,1.6l.34-.07.9-.23c.38-.1.81-.23,1.31-.38s1-.33,1.55-.54,1.12-.47,1.73-.76a20.06,20.06,0,0,0,1.8-1,19,19,0,0,0,1.71-1.23A10.17,10.17,0,0,0,52.87,13a7.3,7.3,0,0,0,1-1.6,4.22,4.22,0,0,0,.37-1.74,4.32,4.32,0,0,0-.36-1.75,5.89,5.89,0,0,0-1-1.52A7.05,7.05,0,0,0,51.48,5.1a10.43,10.43,0,0,0-1.69-.95A9,9,0,0,0,48,3.56a7.52,7.52,0,0,0-1.7-.21,57.3,57.3,0,0,0-1.93,6C43.86,11.31,43.34,13.35,42.85,15.43Z"/></g></g></svg>