<svg xmlns="http://www.w3.org/2000/svg" viewBox="0 0 17.52 20.69"><defs><style>.cls-1{fill:#fff;}</style></defs><g id="圖層_2" data-name="圖層 2"><g id="圖層_1-2" data-name="圖層 1"><path class="cls-1" d="M9.16,0c.33.07.68.1,1,.2a5.13,5.13,0,0,1,3.69,3.68,5.13,5.13,0,0,1-1.06,4.86,6.67,6.67,0,0,1-.6.59c-.09.09-.19.17-.3.26.31.14.6.26.87.41a8.68,8.68,0,0,1,4.6,6.2,5.7,5.7,0,0,1,.09,2.14,2.92,2.92,0,0,1-2.72,2.35H3a2.92,2.92,0,0,1-2.83-2A3.94,3.94,0,0,1,0,17,8.81,8.81,0,0,1,5.24,9.77l.33-.15,0,0-.2-.17A5.27,5.27,0,0,1,4.65,2,5.15,5.15,0,0,1,8.16,0l.19,0ZM8.75,19.1c1.89,0,3.77,0,5.66,0a1.37,1.37,0,0,0,1.5-1.54,12.77,12.77,0,0,0-.22-1.51A6.91,6.91,0,0,0,13,12a7,7,0,0,0-3.23-1.34,7.18,7.18,0,0,0-7.28,3.6,7,7,0,0,0-.9,3.52,1.24,1.24,0,0,0,.28.78,1.41,1.41,0,0,0,1.18.52Zm0-17.51a3.71,3.71,0,1,0,3.69,3.76A3.73,3.73,0,0,0,8.78,1.59Z"/></g></g></svg>