<svg xmlns="http://www.w3.org/2000/svg" viewBox="0 0 42 42"><defs><style>.cls-1{fill:#bd8d62;}.cls-2{fill:#fff;}</style></defs><g id="圖層_2" data-name="圖層 2"><g id="圖層_1-2" data-name="圖層 1"><rect class="cls-1" width="42" height="42"/><path class="cls-2" d="M12.46,35a6.12,6.12,0,0,1-1-.36,2.43,2.43,0,0,1-1.28-2.35c.08-1.32.2-2.64.31-4,.13-1.68.27-3.37.41-5.06.15-1.92.31-3.85.47-5.77.09-1.16.18-2.33.28-3.49a1,1,0,0,1,1-1h2.83a5.66,5.66,0,0,1,2.33-4.79,5.45,5.45,0,0,1,3.7-1.08A5.69,5.69,0,0,1,26.89,13h2.76a1,1,0,0,1,1.09,1c.24,2.91.47,5.82.71,8.73s.48,6,.74,9a2.86,2.86,0,0,1-.78,2.49A3.06,3.06,0,0,1,30,35Zm1.09-20c-.1,1.25-.19,2.47-.29,3.69-.19,2.35-.39,4.71-.58,7.07l-.51,6.39c-.06.67.16.91.84.91H29.62a.64.64,0,0,0,.66-.73c-.07-.89-.14-1.78-.22-2.68l-.57-7c-.18-2.13-.34-4.26-.51-6.4,0-.4-.08-.8-.11-1.2h-2v4.74a1,1,0,0,1-1,1,1,1,0,0,1-1-1V15H17.51v.31c0,1.45,0,2.9,0,4.35a1.45,1.45,0,0,1-.08.5,1,1,0,0,1-1.09.59,1,1,0,0,1-.77-1V15h-2Zm11.34-2a3.7,3.7,0,1,0-7.38,0Z"/></g></g></svg>