<svg xmlns="http://www.w3.org/2000/svg" viewBox="0 0 22 27.85"><defs><style>.cls-1{fill:#fff;}</style></defs><g id="圖層_2" data-name="圖層 2"><g id="圖層_1-2" data-name="圖層 1"><path class="cls-1" d="M2.24,27.85a4.93,4.93,0,0,1-1-.37A2.42,2.42,0,0,1,0,25.13c.07-1.32.19-2.63.3-3.95.13-1.69.27-3.38.41-5.07.16-1.92.31-3.84.47-5.76.09-1.17.19-2.33.28-3.5a1,1,0,0,1,1-1H5.33A5.65,5.65,0,0,1,7.66,1.1,5.47,5.47,0,0,1,11.36,0a5.7,5.7,0,0,1,5.31,5.87h2.77a1,1,0,0,1,1.08,1c.24,2.91.47,5.81.71,8.72s.49,6,.75,9a2.87,2.87,0,0,1-.79,2.49,3,3,0,0,1-1.44.71Zm1.1-20c-.1,1.26-.2,2.47-.3,3.69q-.29,3.54-.58,7.07C2.29,20.72,2.13,22.85,2,25c-.05.67.16.91.84.91H19.4a.65.65,0,0,0,.66-.73l-.21-2.68q-.3-3.52-.58-7l-.51-6.39c0-.4-.07-.8-.11-1.2h-2v.31c0,1.47,0,2.95,0,4.43a1,1,0,1,1-1.94,0c0-1.48,0-3,0-4.44V7.85H7.29V12.5a1.47,1.47,0,0,1-.08.51,1,1,0,0,1-1.1.59,1,1,0,0,1-.77-1V7.84h-2ZM14.68,5.88a3.64,3.64,0,0,0-1.77-3.4,3.72,3.72,0,0,0-5.62,3.4Z"/></g></g></svg>